<?xml version="1.0" standalone="no"?>
<!DOCTYPE svg PUBLIC "-//W3C//DTD SVG 20010904//EN"
 "http://www.w3.org/TR/2001/REC-SVG-20010904/DTD/svg10.dtd">
<svg version="1.0" xmlns="http://www.w3.org/2000/svg"
 width="300.000000pt" height="300.000000pt" viewBox="0 0 300.000000 300.000000"
 preserveAspectRatio="xMidYMid meet">
<metadata>
Created by potrace 1.10, written by Peter Selinger 2001-2011
</metadata>
<g transform="translate(0.000000,300.000000) scale(0.100000,-0.100000)"
fill="#000000" stroke="none">
<path d="M1046 2209 c-21 -16 -26 -29 -26 -62 0 -23 -26 -138 -57 -256 -44
-167 -55 -219 -47 -240 16 -45 6 -107 -19 -118 -31 -15 -41 -38 -87 -212 -23
-84 -49 -174 -59 -200 -21 -52 -15 -83 19 -101 33 -18 69 -4 84 33 8 17 26 82
41 142 14 61 33 134 41 163 l15 52 154 0 154 0 20 -67 c35 -119 61 -226 61
-251 0 -13 13 -37 29 -53 l29 -29 159 0 c158 0 160 0 183 26 l24 25 -18 47
c-10 26 -40 125 -67 221 -27 95 -52 177 -55 182 -3 5 4 9 14 9 30 0 44 24 40
72 -3 38 -6 43 -29 46 -33 4 -53 -20 -51 -63 1 -31 -2 -35 -23 -35 -22 0 -25
4 -25 38 0 21 7 47 15 58 8 10 15 27 15 36 0 18 -98 384 -126 470 -27 82 -42
88 -224 88 -144 0 -160 -2 -184 -21z m430 -289 c40 -146 73 -266 74 -267 0 -2
-71 -3 -157 -3 l-158 0 -65 241 c-42 159 -67 235 -71 223 -4 -11 -33 -119 -65
-241 -50 -194 -60 -223 -77 -223 -14 0 -18 5 -14 18 77 274 118 443 115 480
l-3 42 174 -2 175 -3 72 -265z m-318 -130 c36 -133 38 -147 25 -169 -10 -15
-13 -36 -10 -57 l6 -34 -82 0 -82 0 1 68 c0 58 59 310 80 344 12 18 22 -8 62
-152z m-161 -207 c2 -24 -2 -33 -17 -38 -29 -9 -37 0 -32 40 4 30 8 36 25 33
16 -2 22 -11 24 -35z m251 25 c16 -16 15 -33 -4 -52 -28 -28 -44 -20 -44 24 0
32 4 40 18 40 10 0 23 -5 30 -12z m142 2 c0 -5 -7 -7 -15 -4 -8 4 -15 1 -15
-5 0 -6 8 -12 18 -12 16 -1 16 -2 0 -6 -22 -5 -24 -23 -3 -23 8 0 15 -5 15
-11 0 -6 -10 -9 -22 -7 -19 2 -24 10 -26 41 -3 34 -1 37 22 37 14 0 26 -4 26
-10z m105 -17 l7 -28 10 28 c5 15 14 27 19 27 5 0 9 -2 9 -4 0 -10 -31 -76
-36 -76 -5 0 -34 64 -34 75 0 17 19 0 25 -22z m175 16 c0 -6 -7 -9 -15 -5 -8
3 -15 1 -15 -4 0 -6 8 -11 18 -11 16 -1 16 -2 0 -6 -22 -5 -24 -23 -3 -23 8 0
15 -4 15 -10 0 -5 -11 -10 -25 -10 -22 0 -25 4 -25 40 0 36 3 40 25 40 14 0
25 -5 25 -11z m-355 -34 c0 -23 -5 -31 -21 -33 -18 -3 -20 1 -16 33 6 46 37
46 37 0z m135 14 c21 -39 -12 -68 -39 -35 -9 11 -10 20 -1 35 14 27 26 27 40
0z m190 -271 c27 -97 58 -194 69 -217 12 -22 21 -43 21 -46 0 -3 -79 -5 -175
-5 l-175 0 0 38 c0 29 -52 242 -85 352 -4 13 -32 15 -190 12 l-184 -3 -10 -37
c-66 -247 -81 -311 -81 -334 0 -25 -4 -28 -34 -28 l-35 0 21 47 c11 26 41 122
65 213 24 91 45 170 47 175 2 6 128 10 351 10 l347 0 48 -177z"/>
<path d="M1210 1586 c0 -17 5 -26 16 -26 10 0 14 7 12 22 -5 32 -28 35 -28 4z"/>
<path d="M1879 2200 c-25 -24 -29 -35 -25 -62 15 -95 25 -512 13 -525 -12 -11
-8 -48 8 -69 8 -12 11 -25 7 -28 -4 -4 -9 -139 -12 -299 -6 -333 -8 -343 -84
-397 -56 -41 -66 -65 -37 -94 26 -26 94 -26 192 -1 128 33 217 103 265 208
l29 62 3 247 c2 163 0 253 -7 267 -6 11 -7 22 -2 25 4 3 9 97 9 208 1 112 5
257 8 324 l7 121 -28 21 c-26 20 -39 22 -172 22 l-145 0 -29 -30z m337 -37
c-4 -16 -9 -137 -13 -270 l-6 -243 -142 0 -142 0 -7 238 c-3 130 -9 252 -12
270 l-6 32 167 0 167 0 -6 -27z m-271 -577 c0 -36 -26 -56 -49 -37 -31 26 -11
75 29 69 15 -2 20 -11 20 -32z m141 19 c4 -9 -5 -26 -20 -42 l-26 -26 0 42 c0
35 3 41 20 41 11 0 23 -7 26 -15z m139 5 c-3 -5 -12 -7 -20 -3 -8 3 -15 0 -15
-6 0 -6 8 -12 18 -12 16 -1 16 -2 0 -6 -24 -6 -23 -23 2 -23 11 0 20 -4 20
-10 0 -5 -11 -10 -25 -10 -22 0 -25 4 -25 40 0 36 2 40 26 40 14 0 23 -4 19
-10z m-215 -35 c0 -24 -5 -35 -14 -35 -20 0 -25 11 -19 43 8 40 33 35 33 -8z
m135 -1 c0 -22 -5 -30 -22 -32 -26 -4 -28 6 -11 43 15 33 33 27 33 -11z m55
-307 c0 -262 -7 -306 -63 -379 -59 -77 -165 -125 -319 -143 -75 -9 -78 9 -8
47 34 19 56 41 72 70 22 42 23 53 26 341 l4 297 144 0 144 0 0 -233z"/>
<path d="M1907 1604 c-4 -4 -7 -16 -7 -26 0 -20 25 -25 36 -7 8 13 -19 43 -29
33z"/>
<path d="M624 1619 c-30 -33 7 -98 55 -95 40 2 61 23 61 62 0 39 -6 43 -59 48
-29 2 -45 -2 -57 -15z m26 -21 c1 -21 2 -22 14 -5 16 21 26 22 26 2 0 -8 5
-15 10 -15 6 0 10 9 10 20 0 11 5 20 11 20 6 0 8 -7 5 -16 -3 -9 -9 -27 -12
-40 -8 -30 -19 -31 -29 -1 l-8 22 -4 -22 c-2 -13 -8 -23 -13 -23 -8 0 -11 8
-26 63 -3 9 -1 17 5 17 6 0 11 -10 11 -22z"/>
<path d="M801 1626 c-17 -21 -10 -87 12 -100 31 -20 52 4 52 60 0 45 -2 49
-26 52 -14 2 -31 -4 -38 -12z m59 -17 c0 -6 -7 -9 -15 -5 -8 3 -15 1 -15 -4 0
-6 8 -11 18 -11 16 -1 16 -2 0 -6 -22 -5 -24 -23 -3 -23 8 0 15 -4 15 -10 0
-5 -11 -10 -25 -10 -22 0 -25 4 -25 40 0 36 3 40 25 40 14 0 25 -5 25 -11z"/>
<path d="M2302 1628 c-17 -17 -15 -73 2 -87 8 -7 27 -11 43 -9 25 3 28 8 31
41 2 21 -2 45 -9 53 -14 17 -51 18 -67 2z m57 -30 c-2 -13 0 -29 5 -36 13 -22
-3 -27 -19 -6 -13 17 -14 17 -15 2 0 -38 -20 -16 -20 22 0 36 2 40 26 40 21 0
25 -4 23 -22z"/>
<path d="M1740 1611 c-15 -30 -12 -56 10 -76 20 -19 47 -15 56 9 8 20 -23 86
-40 86 -8 0 -20 -9 -26 -19z m30 -21 c0 -20 5 -30 15 -30 8 0 15 -5 15 -11 0
-6 -10 -9 -22 -7 -19 2 -24 10 -26 41 -2 21 1 37 7 37 6 0 11 -13 11 -30z"/>
</g>
</svg>
